<mxfile host="app.diagrams.net" agent="Mozilla/5.0 (Macintosh; Intel Mac OS X 10_15_7) AppleWebKit/537.36 (KHTML, like Gecko) Chrome/141.0.0.0 Safari/537.36" version="28.2.8">
  <diagram name="Page-1" id="nq8KcIX_I8-f-EaMl4nR">
    <mxGraphModel dx="1012" dy="722" grid="1" gridSize="10" guides="1" tooltips="1" connect="1" arrows="1" fold="1" page="1" pageScale="1" pageWidth="827" pageHeight="1169" math="0" shadow="0">
      <root>
        <mxCell id="0" />
        <mxCell id="1" parent="0" />
        <mxCell id="uKL5C5Kaa12E5guRlcW7-1" style="edgeStyle=orthogonalEdgeStyle;rounded=0;orthogonalLoop=1;jettySize=auto;html=1;entryX=0;entryY=0.5;entryDx=0;entryDy=0;" edge="1" parent="1" target="uKL5C5Kaa12E5guRlcW7-8">
          <mxGeometry relative="1" as="geometry">
            <mxPoint x="410" y="435" as="sourcePoint" />
          </mxGeometry>
        </mxCell>
        <mxCell id="uKL5C5Kaa12E5guRlcW7-2" value="" style="rounded=0;whiteSpace=wrap;html=1;" vertex="1" parent="1">
          <mxGeometry x="220" y="335" width="190" height="160" as="geometry" />
        </mxCell>
        <mxCell id="uKL5C5Kaa12E5guRlcW7-3" style="edgeStyle=orthogonalEdgeStyle;rounded=0;orthogonalLoop=1;jettySize=auto;html=1;exitX=1;exitY=0.5;exitDx=0;exitDy=0;entryX=0;entryY=0.5;entryDx=0;entryDy=0;" edge="1" parent="1" source="uKL5C5Kaa12E5guRlcW7-4" target="uKL5C5Kaa12E5guRlcW7-12">
          <mxGeometry relative="1" as="geometry" />
        </mxCell>
        <mxCell id="uKL5C5Kaa12E5guRlcW7-4" value="Structured data&amp;nbsp;" style="rounded=0;whiteSpace=wrap;html=1;" vertex="1" parent="1">
          <mxGeometry x="40" y="385" width="120" height="40" as="geometry" />
        </mxCell>
        <mxCell id="uKL5C5Kaa12E5guRlcW7-5" style="edgeStyle=orthogonalEdgeStyle;rounded=0;orthogonalLoop=1;jettySize=auto;html=1;exitX=1;exitY=0.5;exitDx=0;exitDy=0;entryX=0;entryY=0.5;entryDx=0;entryDy=0;" edge="1" parent="1" source="uKL5C5Kaa12E5guRlcW7-6" target="uKL5C5Kaa12E5guRlcW7-10">
          <mxGeometry relative="1" as="geometry" />
        </mxCell>
        <mxCell id="uKL5C5Kaa12E5guRlcW7-6" value="Unstructured data&amp;nbsp;" style="rounded=0;whiteSpace=wrap;html=1;" vertex="1" parent="1">
          <mxGeometry x="40" y="445" width="120" height="40" as="geometry" />
        </mxCell>
        <mxCell id="uKL5C5Kaa12E5guRlcW7-7" style="edgeStyle=orthogonalEdgeStyle;rounded=0;orthogonalLoop=1;jettySize=auto;html=1;exitX=0.5;exitY=1;exitDx=0;exitDy=0;entryX=0.5;entryY=0;entryDx=0;entryDy=0;" edge="1" parent="1" source="uKL5C5Kaa12E5guRlcW7-8" target="uKL5C5Kaa12E5guRlcW7-14">
          <mxGeometry relative="1" as="geometry" />
        </mxCell>
        <mxCell id="uKL5C5Kaa12E5guRlcW7-8" value="Creation of&amp;nbsp;&lt;div&gt;Graph&lt;/div&gt;" style="rounded=0;whiteSpace=wrap;html=1;" vertex="1" parent="1">
          <mxGeometry x="460" y="415" width="100" height="40" as="geometry" />
        </mxCell>
        <mxCell id="uKL5C5Kaa12E5guRlcW7-9" style="edgeStyle=orthogonalEdgeStyle;rounded=0;orthogonalLoop=1;jettySize=auto;html=1;exitX=1;exitY=0.5;exitDx=0;exitDy=0;entryX=0;entryY=0.5;entryDx=0;entryDy=0;" edge="1" parent="1" source="uKL5C5Kaa12E5guRlcW7-10" target="uKL5C5Kaa12E5guRlcW7-16">
          <mxGeometry relative="1" as="geometry" />
        </mxCell>
        <mxCell id="uKL5C5Kaa12E5guRlcW7-10" value="LLM" style="rounded=0;whiteSpace=wrap;html=1;" vertex="1" parent="1">
          <mxGeometry x="240" y="450" width="50" height="30" as="geometry" />
        </mxCell>
        <mxCell id="uKL5C5Kaa12E5guRlcW7-11" style="edgeStyle=orthogonalEdgeStyle;rounded=0;orthogonalLoop=1;jettySize=auto;html=1;exitX=1;exitY=0.5;exitDx=0;exitDy=0;" edge="1" parent="1" source="uKL5C5Kaa12E5guRlcW7-12">
          <mxGeometry relative="1" as="geometry">
            <Array as="points">
              <mxPoint x="400" y="405" />
              <mxPoint x="400" y="405" />
            </Array>
            <mxPoint x="410" y="405" as="targetPoint" />
          </mxGeometry>
        </mxCell>
        <mxCell id="uKL5C5Kaa12E5guRlcW7-12" value="Graph Layer" style="rounded=0;whiteSpace=wrap;html=1;" vertex="1" parent="1">
          <mxGeometry x="275" y="390" width="80" height="30" as="geometry" />
        </mxCell>
        <mxCell id="uKL5C5Kaa12E5guRlcW7-13" style="edgeStyle=orthogonalEdgeStyle;rounded=0;orthogonalLoop=1;jettySize=auto;html=1;exitX=0.5;exitY=1;exitDx=0;exitDy=0;entryX=0.5;entryY=0;entryDx=0;entryDy=0;" edge="1" parent="1" source="uKL5C5Kaa12E5guRlcW7-14" target="uKL5C5Kaa12E5guRlcW7-17">
          <mxGeometry relative="1" as="geometry" />
        </mxCell>
        <mxCell id="uKL5C5Kaa12E5guRlcW7-18" value="" style="edgeStyle=orthogonalEdgeStyle;rounded=0;orthogonalLoop=1;jettySize=auto;html=1;" edge="1" parent="1" source="uKL5C5Kaa12E5guRlcW7-14" target="uKL5C5Kaa12E5guRlcW7-17">
          <mxGeometry relative="1" as="geometry" />
        </mxCell>
        <mxCell id="uKL5C5Kaa12E5guRlcW7-14" value="Graph Neural Network" style="rounded=0;whiteSpace=wrap;html=1;" vertex="1" parent="1">
          <mxGeometry x="460" y="485" width="100" height="40" as="geometry" />
        </mxCell>
        <mxCell id="uKL5C5Kaa12E5guRlcW7-15" style="edgeStyle=orthogonalEdgeStyle;rounded=0;orthogonalLoop=1;jettySize=auto;html=1;exitX=1;exitY=0.5;exitDx=0;exitDy=0;" edge="1" parent="1" source="uKL5C5Kaa12E5guRlcW7-16">
          <mxGeometry relative="1" as="geometry">
            <mxPoint x="410" y="465" as="targetPoint" />
          </mxGeometry>
        </mxCell>
        <mxCell id="uKL5C5Kaa12E5guRlcW7-16" value="Tranformer" style="rounded=0;whiteSpace=wrap;html=1;" vertex="1" parent="1">
          <mxGeometry x="310" y="450" width="80" height="30" as="geometry" />
        </mxCell>
        <mxCell id="uKL5C5Kaa12E5guRlcW7-17" value="Graph Decoder&amp;nbsp;" style="rounded=0;whiteSpace=wrap;html=1;" vertex="1" parent="1">
          <mxGeometry x="460" y="555" width="100" height="30" as="geometry" />
        </mxCell>
        <mxCell id="uKL5C5Kaa12E5guRlcW7-19" value="Encoder&amp;nbsp;" style="rounded=0;whiteSpace=wrap;html=1;strokeColor=none;fillColor=none;" vertex="1" parent="1">
          <mxGeometry x="255" y="345" width="120" height="30" as="geometry" />
        </mxCell>
      </root>
    </mxGraphModel>
  </diagram>
</mxfile>
